<mxfile host="app.diagrams.net" modified="2020-09-17T08:44:49.494Z" agent="5.0 (X11)" etag="nf2c3YRxBdLcw1441UJ5" version="13.7.1" type="github">
  <diagram id="uevzfpadG8BJx-zsAJZ2" name="Page-1">
    <mxGraphModel dx="1343" dy="702" grid="1" gridSize="10" guides="1" tooltips="1" connect="1" arrows="1" fold="1" page="1" pageScale="1" pageWidth="827" pageHeight="1169" math="0" shadow="0">
      <root>
        <mxCell id="0" />
        <mxCell id="1" parent="0" />
        <mxCell id="7sBLjf1K2WScxn9F28ua-1" value="&lt;div&gt;VM&lt;/div&gt;" style="rounded=0;whiteSpace=wrap;html=1;fillColor=#f8cecc;strokeColor=#b85450;" parent="1" vertex="1">
          <mxGeometry x="350" y="440" width="120" height="60" as="geometry" />
        </mxCell>
        <mxCell id="7sBLjf1K2WScxn9F28ua-2" value="&lt;div&gt;VM&lt;/div&gt;" style="rounded=0;whiteSpace=wrap;html=1;fillColor=#f8cecc;strokeColor=#b85450;" parent="1" vertex="1">
          <mxGeometry x="490" y="440" width="120" height="60" as="geometry" />
        </mxCell>
        <mxCell id="7sBLjf1K2WScxn9F28ua-3" value="&lt;div&gt;VM&lt;/div&gt;" style="rounded=0;whiteSpace=wrap;html=1;fillColor=#f8cecc;strokeColor=#b85450;" parent="1" vertex="1">
          <mxGeometry x="640" y="440" width="120" height="60" as="geometry" />
        </mxCell>
        <mxCell id="7sBLjf1K2WScxn9F28ua-4" value="" style="rounded=0;whiteSpace=wrap;html=1;fillColor=#f5f5f5;strokeColor=#666666;fontColor=#333333;" parent="1" vertex="1">
          <mxGeometry x="350" y="200" width="410" height="220" as="geometry" />
        </mxCell>
        <mxCell id="7sBLjf1K2WScxn9F28ua-5" value="&lt;div&gt;Kubernetes&lt;/div&gt;" style="text;html=1;strokeColor=none;fillColor=none;align=center;verticalAlign=middle;whiteSpace=wrap;rounded=0;" parent="1" vertex="1">
          <mxGeometry x="490" y="210" width="135" height="20" as="geometry" />
        </mxCell>
        <mxCell id="7sBLjf1K2WScxn9F28ua-7" value="Jenkins" style="rounded=1;whiteSpace=wrap;html=1;fillColor=#dae8fc;strokeColor=#6c8ebf;" parent="1" vertex="1">
          <mxGeometry x="380" y="260" width="75" height="40" as="geometry" />
        </mxCell>
        <mxCell id="7sBLjf1K2WScxn9F28ua-8" value="ArgoCD" style="rounded=1;whiteSpace=wrap;html=1;fillColor=#dae8fc;strokeColor=#6c8ebf;" parent="1" vertex="1">
          <mxGeometry x="376" y="350" width="75" height="40" as="geometry" />
        </mxCell>
        <mxCell id="7sBLjf1K2WScxn9F28ua-9" value="&lt;div&gt;Prometheus&lt;/div&gt;&lt;div&gt;Monitoring&lt;br&gt;&lt;/div&gt;" style="rounded=1;whiteSpace=wrap;html=1;" parent="1" vertex="1">
          <mxGeometry x="670" y="280" width="75" height="40" as="geometry" />
        </mxCell>
        <mxCell id="7sBLjf1K2WScxn9F28ua-10" value="Grafana" style="rounded=1;whiteSpace=wrap;html=1;" parent="1" vertex="1">
          <mxGeometry x="670" y="350" width="75" height="40" as="geometry" />
        </mxCell>
        <mxCell id="7sBLjf1K2WScxn9F28ua-11" value="OMS DEV" style="rounded=1;whiteSpace=wrap;html=1;fillColor=#d5e8d4;strokeColor=#82b366;" parent="1" vertex="1">
          <mxGeometry x="490" y="310" width="75" height="40" as="geometry" />
        </mxCell>
        <mxCell id="7sBLjf1K2WScxn9F28ua-12" value="OMS DT" style="rounded=1;whiteSpace=wrap;html=1;fillColor=#d5e8d4;strokeColor=#82b366;" parent="1" vertex="1">
          <mxGeometry x="490" y="260" width="75" height="40" as="geometry" />
        </mxCell>
        <mxCell id="7sBLjf1K2WScxn9F28ua-13" value="OMS UAT" style="rounded=1;whiteSpace=wrap;html=1;fillColor=#d5e8d4;strokeColor=#82b366;" parent="1" vertex="1">
          <mxGeometry x="490" y="360" width="75" height="40" as="geometry" />
        </mxCell>
        <mxCell id="7sBLjf1K2WScxn9F28ua-14" value="Harbor" style="shape=ext;double=1;rounded=1;whiteSpace=wrap;html=1;fillColor=#ffe6cc;strokeColor=#d79b00;" parent="1" vertex="1">
          <mxGeometry x="220" y="260" width="90" height="40" as="geometry" />
        </mxCell>
        <mxCell id="7sBLjf1K2WScxn9F28ua-15" value="Gitlab" style="shape=ext;double=1;rounded=1;whiteSpace=wrap;html=1;fillColor=#ffe6cc;strokeColor=#d79b00;" parent="1" vertex="1">
          <mxGeometry x="220" y="350" width="90" height="40" as="geometry" />
        </mxCell>
        <mxCell id="7sBLjf1K2WScxn9F28ua-18" value="" style="endArrow=classic;html=1;entryX=0;entryY=0.5;entryDx=0;entryDy=0;" parent="1" target="7sBLjf1K2WScxn9F28ua-15" edge="1">
          <mxGeometry width="50" height="50" relative="1" as="geometry">
            <mxPoint x="130" y="370" as="sourcePoint" />
            <mxPoint x="180" y="360" as="targetPoint" />
          </mxGeometry>
        </mxCell>
        <mxCell id="7sBLjf1K2WScxn9F28ua-19" value="git push" style="text;html=1;align=center;verticalAlign=middle;resizable=0;points=[];autosize=1;" parent="1" vertex="1">
          <mxGeometry x="140" y="350" width="60" height="20" as="geometry" />
        </mxCell>
        <mxCell id="7sBLjf1K2WScxn9F28ua-21" value="" style="endArrow=classic;html=1;entryX=1;entryY=0.5;entryDx=0;entryDy=0;exitX=0;exitY=0.5;exitDx=0;exitDy=0;" parent="1" source="7sBLjf1K2WScxn9F28ua-7" target="7sBLjf1K2WScxn9F28ua-14" edge="1">
          <mxGeometry width="50" height="50" relative="1" as="geometry">
            <mxPoint x="350" y="350" as="sourcePoint" />
            <mxPoint x="400" y="300" as="targetPoint" />
          </mxGeometry>
        </mxCell>
        <mxCell id="7sBLjf1K2WScxn9F28ua-22" value="" style="endArrow=classic;startArrow=classic;html=1;exitX=1;exitY=0.5;exitDx=0;exitDy=0;" parent="1" source="7sBLjf1K2WScxn9F28ua-15" target="7sBLjf1K2WScxn9F28ua-7" edge="1">
          <mxGeometry width="50" height="50" relative="1" as="geometry">
            <mxPoint x="330" y="380" as="sourcePoint" />
            <mxPoint x="370" y="350" as="targetPoint" />
          </mxGeometry>
        </mxCell>
        <mxCell id="7sBLjf1K2WScxn9F28ua-23" value="" style="endArrow=classic;html=1;entryX=0;entryY=0.5;entryDx=0;entryDy=0;exitX=1;exitY=0.5;exitDx=0;exitDy=0;" parent="1" source="7sBLjf1K2WScxn9F28ua-15" target="7sBLjf1K2WScxn9F28ua-8" edge="1">
          <mxGeometry width="50" height="50" relative="1" as="geometry">
            <mxPoint x="140" y="220" as="sourcePoint" />
            <mxPoint x="190" y="170" as="targetPoint" />
          </mxGeometry>
        </mxCell>
        <mxCell id="7sBLjf1K2WScxn9F28ua-24" value="" style="endArrow=classic;html=1;entryX=0;entryY=0.5;entryDx=0;entryDy=0;" parent="1" target="7sBLjf1K2WScxn9F28ua-12" edge="1">
          <mxGeometry width="50" height="50" relative="1" as="geometry">
            <mxPoint x="450" y="370" as="sourcePoint" />
            <mxPoint x="500" y="330" as="targetPoint" />
          </mxGeometry>
        </mxCell>
        <mxCell id="7sBLjf1K2WScxn9F28ua-25" value="" style="endArrow=classic;html=1;entryX=0;entryY=0.75;entryDx=0;entryDy=0;" parent="1" target="7sBLjf1K2WScxn9F28ua-11" edge="1">
          <mxGeometry width="50" height="50" relative="1" as="geometry">
            <mxPoint x="450" y="370" as="sourcePoint" />
            <mxPoint x="510" y="340" as="targetPoint" />
          </mxGeometry>
        </mxCell>
        <mxCell id="7sBLjf1K2WScxn9F28ua-26" value="" style="endArrow=classic;html=1;entryX=0;entryY=0.5;entryDx=0;entryDy=0;" parent="1" source="7sBLjf1K2WScxn9F28ua-8" target="7sBLjf1K2WScxn9F28ua-13" edge="1">
          <mxGeometry width="50" height="50" relative="1" as="geometry">
            <mxPoint x="451" y="420" as="sourcePoint" />
            <mxPoint x="521.7106781186548" y="370" as="targetPoint" />
          </mxGeometry>
        </mxCell>
        <mxCell id="H8rfc7e1gwUF_VrN6Ojt-1" value="" style="pointerEvents=1;shadow=0;dashed=0;html=1;strokeColor=none;fillColor=#505050;labelPosition=center;verticalLabelPosition=bottom;verticalAlign=top;outlineConnect=0;align=center;shape=mxgraph.office.devices.mac_client;" vertex="1" parent="1">
          <mxGeometry x="60" y="346" width="58" height="48" as="geometry" />
        </mxCell>
        <mxCell id="H8rfc7e1gwUF_VrN6Ojt-3" value="" style="aspect=fixed;html=1;points=[];align=center;image;fontSize=12;image=img/lib/mscae/Docker.svg;" vertex="1" parent="1">
          <mxGeometry x="427.32" y="440" width="42.68" height="35" as="geometry" />
        </mxCell>
        <mxCell id="H8rfc7e1gwUF_VrN6Ojt-6" value="" style="aspect=fixed;html=1;points=[];align=center;image;fontSize=12;image=img/lib/mscae/Docker.svg;" vertex="1" parent="1">
          <mxGeometry x="567.3199999999999" y="440" width="42.68" height="35" as="geometry" />
        </mxCell>
        <mxCell id="H8rfc7e1gwUF_VrN6Ojt-7" value="" style="aspect=fixed;html=1;points=[];align=center;image;fontSize=12;image=img/lib/mscae/Docker.svg;" vertex="1" parent="1">
          <mxGeometry x="717.3199999999999" y="440" width="42.68" height="35" as="geometry" />
        </mxCell>
      </root>
    </mxGraphModel>
  </diagram>
</mxfile>
